<svg xmlns="http://www.w3.org/2000/svg" viewBox="0 0 880 210">
  <defs>
    <linearGradient id="coral" x1="0" y1="0" x2="1" y2="0.4">
      <stop offset="0" stop-color="#FF6B5E"/>
      <stop offset="0.55" stop-color="#E8463B"/>
      <stop offset="1" stop-color="#BF3131"/>
    </linearGradient>
  </defs>
  <svg x="0" y="6" width="165" height="165" viewBox="0 0 150 150">
<!-- SVG created with Arrow, by QuiverAI (https://quiver.ai) -->
  <style type="text/css">.cls-0 {fill:#12283D;}
.cls-1 {fill:#107CD0;}
.cls-2 {fill:#FFF7E3;}
.cls-3 {fill:#FFFFFF;}</style>
  <path class="cls-0" d="m146.9 9.1c-4.9 1.5-18.3 6.9-24.1 9.7-7.9 3.2-21.1 8.7-27.7 11.1-3.3 1-7.1 1.9-9.7 1.9-3.7-0.1-7.5-2.2-11.2-2.9-5-0.9-12.4-2-19.5-0.5-2.4-2.1-6.8-4.6-9.9-6.2-2.5-1.5-5.9-2.5-10.5-2.6-9.6-0.2-16.9 3.5-22 6.4-2.1 1.1-2.2 1.5-1.7 2.3 0.5 0.6 1.5 0 2.5 0.1 2.4 0.1 4.8 2.3 4.9 4.8 0.4 2.7-2.2 6.9-4.1 10.4-4.3 7.3-9.8 15.1-11.7 26.8-1.8 9.9-1.6 23.5 3.7 35.4 2.9 6.6 7.8 11.5 11.7 15.7 4.7 4.6 10.9 10 23.7 11 5.2 2.8 12.1 7.1 19.1 7.9 1.7 0.3 4.1 0.7 4.1-1 0-1-5.1-4.8-10-8.3 2.9-0.8 6.7-2.2 10.5-4.2 4.1 4.3 10.4 8.9 17.8 11.2 3.7 1.1 8.1 1.7 11.7 1.5 2.2 0 3.9-0.5 3.1-2-0.7-0.9-10.2-6.5-14.3-9.2-3.8-2.7-8-5.4-8.1-7.1-0.1-1.9 2.2-2.6 2.2-4.7 0-2.4-4.5-1.6-5.9-3.9-1.8-3.1-2.5-17.2-2.6-27.4 0-1.7-2.1-2.6-4.1-0.3-1.7 2-4.6 7.3-4.9 14.6-0.2 6.5 0.8 17.2 0.9 19.6-3.5 0.8-8.7 1.5-13.4 0.1l6.2-1.9c1.2-0.4 1.1-1.5 0-2.1-3.6-0.4-8.5-0.3-13.6-2-1.9-3.8-2.7-11.1 1.8-18.7 4.7-6.9 12.3-12.9 23.5-20 5.5 1.3 16.6 3.1 30.9-1.1 1.7-0.5 0.9-1.8 0-2-5.2-1-7.3-2.1-18.8-4.3 5.2-2.8 17.5-10.6 17.8-16.3-0.2-2.8-2.7-4.3-5.3-3.5-0.5-4 12.2-10 30.9-19.8 6.7-3.5 22.6-11.7 26.6-15 1.6-0.9 1.7-1.9 1.2-3-0.4-0.6-1-0.7-1.7-0.5z"/>
  <path class="cls-1" d="m66.9 125.6c3 2.7 11.5 11.6 28.1 12.4-8.8-5.4-18.6-11.6-20.5-14.7-2.9-4.4 1.9-5.4 1.1-6.4-0.7-0.5-3.7-1-5-2.3-2.9-2.5-3.3-15.5-3.7-29-1.5 0-4.1 5.3-5.1 10.5-0.4 6.3 0.3 17.5 0.9 22.8 1.2-0.3 1.8-1 5.9-0.9 1.4 0 2.8 0.4 2.3 1.9-0.7 2.5-2.5 4.2-4.4 5.7z"/>
  <path class="cls-1" d="m44.7 132.5c3.7 2.1 10.8 5.9 17.1 6.4-0.8-1.2-4.7-3.9-9.4-7.2-2.2 0.4-5.3 0.9-7.7 0.8z"/>
  <path class="cls-1" d="m14.5 26.3v0.4c2.2 0.4 4.9 3 5 5.7 0.4 4-2.4 9-6.9 16.6-6.4 10.9-10 20.9-9.1 37.4 0.1 6.7 1 11.5 2.8 16.7-1.4-4.2-1.4-9.5-1.2-16.4 0.9-18.3 11.4-32.8 25.4-44 5.1-4 10.6-7.3 16.4-9.8l5.3-2v-2c-2.3-1.8-7.8-5.5-11.7-6.5-6.6-1.7-16.4-0.7-26 3.9z"/>
  <path class="cls-1" d="m52.2 30.9"/>
  <path class="cls-1" d="m68.2 29.5c-5.3-0.1-10 0.1-16 1.4-10.3 2.7-19.5 8.5-29.6 18.6-9.9 10.1-16.1 23.6-16.1 39.1 0 12.8 4.4 24.5 14.4 33.4 11.3 9.6 25 10.6 37.5 5.7l6-2.3c1.5-0.8 3.8-2.4 4.5-4-2.5 1.5-3.8 2-8.9 3-5.5 1.2-9.5 3-16.6 3-16.5 0-25.4-12.3-25.4-27.4-0.4-18.4 9.9-32.1 17.2-38 5.9-5.4 13.2-8.9 20-9.9 0.2 0 0.2-0.2 0.3-0.2 0.6-2.8 2.2-8.5 5.2-11.4-0.7 4 2.4 5.9 5 5.7 11.2-0.2 16.2-5.1 22-8.7 2.2-1.4 7-3.6 10.9-5.4-3.9 0.8-9.5 1.8-14.2 0.8-4.5-0.8-8-3-16.2-3.4z"/>
  <path class="cls-2" d="m90.9 35.9c-5.8 3.2-11 8.3-19 9.7-3.5 0.6-6.2 1.1-8.3 0-2.1-1-3.4-3.2-2.9-5.7-2.8 2.5-5.2 7.7-4.2 13.6 0.9 6.1 4 13.1 9.9 14.9 1.7 0.5 4 0.5 6-0.4 4-1.9 11.3-6.9 13-8.1 4.2-3.3 8-6.9 7.7-9.5-0.5-1.5-2.2-1.3-3.1-0.5-3.4 2-6.9 4.5-11.4 5.7-3.9 1-8.1-1.2-10.1-4.2-0.6 0.5-1.1 1.2-1.9 2.3-0.2-2.6 2-4.6 4.8-4.2l-2.3 1.1c2.5 2.1 5.8 4 10.5 2.8 3.3-0.8 8.5-3.9 8.5-4.4-0.7-5 4.3-8.1 8.5-10.9 5.5-3.5 15.8-9 22.6-13.6-5.5 2.4-12.8 4.9-17.6 6.9-4.2 2-7.6 3.7-10.7 4.5z"/>
  <path class="cls-1" d="m75.5 68.4-8.2 4.7c6.9 1.5 16.8 2.5 25.4-0.4-4.1-1.3-11.6-3.1-17.2-4.3z"/>
  <path class="cls-2" d="m55.2 52.1c-5.8 0.6-13.1 3.3-20.1 9.5-11.2 10.5-17.7 23-17.2 37.5 0.1 15.3 9 28.3 26 28.3 7.7 0 10.5-1.5 16.7-2.8 4.8-1 6.8-1.7 7.8-3 1-1 0.8-2 0.2-2.2-3.2-0.3-3.7 0.5-5.5 1-3 0.7-5.7 1.2-8.5 1.2-6.5-0.2-9.2-1.2-11.7-3-6.5-4.5-8.3-15-4-23 5-9 14.5-16.2 23.2-21l6.1-3.9c-7.1-0.3-10.1-6.1-11.8-12.1-0.8-2.7-1.2-6.5-1.2-6.5z"/>
  <path class="cls-0" d="m68.7 35.7c0.9-4.2 4.4-5.1 6-3.2-2.1-0.1-4.3 0.9-6 3.2z"/>
  <path class="cls-0" d="m68.9 65.2c1 1.2-0.8 0.7-1.3 0.5-4.2-1.5-7.5-6-7.6-12.5 0.1-0.8 0.6-1.1 1 0.3 1.6 5.2 4.4 9.5 7.9 11.7z"/>
  <path class="cls-0" d="m69.2 50.9-0.8 0.5c1.7 2.1 5.2 4.7 9.2 4.7s10.9-4.2 12.8-6.1c-2.5 0.7-5.9 2.4-9.7 4-4.3 1.6-8.3-0.1-11.5-3.1z"/>
  <path class="cls-0" d="m84.1 40.4c3.8-2.8 9.5-6 14.5-8.3-3 1.9-8.4 5-14.1 9.9-0.9-0.1-0.4-1.6-0.4-1.6z"/>
  <path class="cls-0" d="m17.1 97.1 9-8.5 19.4-19c2.1-2 4.1-3.5 7.1-3.2 2 0 3.5 1.2 3.5 3 0.3 3.3-5 8.6-10.5 13.7-3 2.6-6.7 6-10.9 8.3-4.8 2.6-12.5 6-16.8 7.5-1.3 0.5-1.8-1-0.8-1.8z"/>
  <path class="cls-1" d="m21 95.7 13.4-6.3c2.2-1.4 4.2-2.5 6.7-4.7 5.8-5.1 13.3-11.8 13.3-14.6 0-1.7-2.8-3.2-6.3-0.4l-20 19.3-7.1 6.7z"/>
  <path class="cls-1" d="m41.1 115.6c0.8 1 2.3 2.3 4 2.8l5.8-1.7c-2.3-0.1-6.2-0.6-9.8-1.1z"/>
  <path class="cls-0" d="m51.9 115.1 1.8 0.2c1 0.6 0.8 1.7-0.1 1.8l-6.5 2.3-2-0.8 5.8-1.9-10.4-1.1-1.6-2.5c4.2 1.5 9.2 2 13 2z"/>
  <path class="cls-0" d="m71.6 40.1c0 1.8 0.8 3.5 2.3 3.5s2.2-1.5 2.2-3.1-0.9-3.4-2.4-3.4c-1.3 0-2.1 1.5-2.1 3z"/>
  <path class="cls-3" d="m73.4 39.1c0 0.6 0.2 1.1 0.8 1.1 0.7 0.2 1-0.5 1-1.1 0-0.5-0.3-1.2-1-1.2-0.5 0-0.8 0.7-0.8 1.2z"/>
  <path class="cls-0" d="m88.2 49.1c1.7-1.7 4.7-3 6.4-0.7l0.5 1 0.1 1.5-2 0.7c0.9-2.2-0.6-3.2-3.1-1.7l-1.9 0.8z"/>
  <path class="cls-0" d="m146.9 9.1"/>
</svg>
  <text x="190" y="135" font-family="Arial, Helvetica, sans-serif" font-size="150"
        font-weight="800" letter-spacing="4" fill="url(#coral)">MARLIN</text>
  <text x="194" y="185" font-family="Menlo, Consolas, monospace" font-size="25" fill="#9a8c84">video understanding, on your Mac &#183; <tspan fill="#E76F57">Marlin-2B</tspan></text>
</svg>